<svg xmlns="http://www.w3.org/2000/svg" width="24" height="24" viewBox="0 0 24 24" fill="none">
<path d="M 3.6 12 C 3.6 7.36 7.36 3.6 12 3.6 C 16.64 3.6 20.4 7.36 20.4 12 C 20.4 16.64 16.64 20.4 12 20.4 C 7.36 20.4 3.6 16.64 3.6 12 Z" fill="none" stroke="#000" stroke-width="1.7" stroke-linecap="round" stroke-linejoin="round"/>
<path d="M 8.45 9.2 C 8.45 8.68 8.88 8.25 9.4 8.25 C 9.92 8.25 10.35 8.68 10.35 9.2 C 10.35 9.72 9.92 10.15 9.4 10.15 C 8.88 10.15 8.45 9.72 8.45 9.2 Z" fill="none" stroke="#000" stroke-width="1.35" stroke-linecap="round" stroke-linejoin="round"/>
<path d="M 13.85 10.8 C 13.85 10.28 14.28 9.85 14.8 9.85 C 15.32 9.85 15.75 10.28 15.75 10.8 C 15.75 11.32 15.32 11.75 14.8 11.75 C 14.28 11.75 13.85 11.32 13.85 10.8 Z" fill="none" stroke="#000" stroke-width="1.35" stroke-linecap="round" stroke-linejoin="round"/>
<path d="M 9.25 14.8 C 9.25 14.28 9.68 13.85 10.2 13.85 C 10.72 13.85 11.15 14.28 11.15 14.8 C 11.15 15.32 10.72 15.75 10.2 15.75 C 9.68 15.75 9.25 15.32 9.25 14.8 Z" fill="none" stroke="#000" stroke-width="1.35" stroke-linecap="round" stroke-linejoin="round"/>
<path d="M 14.75 15.4 C 14.75 14.93 15.13 14.55 15.6 14.55 C 16.07 14.55 16.45 14.93 16.45 15.4 C 16.45 15.87 16.07 16.25 15.6 16.25 C 15.13 16.25 14.75 15.87 14.75 15.4 Z" fill="none" stroke="#000" stroke-width="1.35" stroke-linecap="round" stroke-linejoin="round"/>
</svg>
