<svg xmlns="http://www.w3.org/2000/svg" width="24" height="24" viewBox="0 0 24 24" fill="none">
<path d="M 3.6 12 C 3.6 7.36 7.36 3.6 12 3.6 C 16.64 3.6 20.4 7.36 20.4 12 C 20.4 16.64 16.64 20.4 12 20.4 C 7.36 20.4 3.6 16.64 3.6 12 Z" fill="none" stroke="#000" stroke-width="1.7" stroke-linecap="round" stroke-linejoin="round"/>
<path d="M 12 12 L 15.4 8.8" fill="none" stroke="#000" stroke-width="1.7" stroke-linecap="round" stroke-linejoin="round"/>
<path d="M 11.15 12 C 11.15 11.53 11.53 11.15 12 11.15 C 12.47 11.15 12.85 11.53 12.85 12 C 12.85 12.47 12.47 12.85 12 12.85 C 11.53 12.85 11.15 12.47 11.15 12 Z" fill="none" stroke="#000" stroke-width="1.35" stroke-linecap="round" stroke-linejoin="round"/>
<path d="M 12 3.6 L 12 5.2" fill="none" stroke="#000" stroke-width="1.35" stroke-linecap="round" stroke-linejoin="round"/>
<path d="M 20.4 12 L 18.8 12" fill="none" stroke="#000" stroke-width="1.35" stroke-linecap="round" stroke-linejoin="round"/>
<path d="M 12 20.4 L 12 18.8" fill="none" stroke="#000" stroke-width="1.35" stroke-linecap="round" stroke-linejoin="round"/>
<path d="M 3.6 12 L 5.2 12" fill="none" stroke="#000" stroke-width="1.35" stroke-linecap="round" stroke-linejoin="round"/>
</svg>
