<svg xmlns="http://www.w3.org/2000/svg" width="24" height="24" viewBox="0 0 24 24" fill="none">
<path d="M 3.6 5.8 C 3.6 4.58 4.58 3.6 5.8 3.6 L 8.6 3.6 C 9.82 3.6 10.8 4.58 10.8 5.8 L 10.8 8.6 C 10.8 9.82 9.82 10.8 8.6 10.8 L 5.8 10.8 C 4.58 10.8 3.6 9.82 3.6 8.6 Z" fill="none" stroke="#000" stroke-width="1.7" stroke-linecap="round" stroke-linejoin="round"/>
<path d="M 13.2 5.8 C 13.2 4.58 14.18 3.6 15.4 3.6 L 18.2 3.6 C 19.42 3.6 20.4 4.58 20.4 5.8 L 20.4 8.6 C 20.4 9.82 19.42 10.8 18.2 10.8 L 15.4 10.8 C 14.18 10.8 13.2 9.82 13.2 8.6 Z" fill="none" stroke="#000" stroke-width="1.7" stroke-linecap="round" stroke-linejoin="round"/>
<path d="M 3.6 15.4 C 3.6 14.18 4.58 13.2 5.8 13.2 L 8.6 13.2 C 9.82 13.2 10.8 14.18 10.8 15.4 L 10.8 18.2 C 10.8 19.42 9.82 20.4 8.6 20.4 L 5.8 20.4 C 4.58 20.4 3.6 19.42 3.6 18.2 Z" fill="none" stroke="#000" stroke-width="1.7" stroke-linecap="round" stroke-linejoin="round"/>
<path d="M 13.2 15.4 C 13.2 14.18 14.18 13.2 15.4 13.2 L 18.2 13.2 C 19.42 13.2 20.4 14.18 20.4 15.4 L 20.4 18.2 C 20.4 19.42 19.42 20.4 18.2 20.4 L 15.4 20.4 C 14.18 20.4 13.2 19.42 13.2 18.2 Z" fill="none" stroke="#000" stroke-width="1.7" stroke-linecap="round" stroke-linejoin="round"/>
</svg>
