<svg xmlns="http://www.w3.org/2000/svg" viewBox="0 0 24 24"><path d="M5.5 5.55C6.08 5.55 6.55 6.02 6.55 6.6C6.55 7.18 6.08 7.65 5.5 7.65C4.92 7.65 4.45 7.18 4.45 6.6C4.45 6.02 4.92 5.55 5.5 5.55Z"/><path d="M5.5 10.95C6.08 10.95 6.55 11.42 6.55 12C6.55 12.58 6.08 13.05 5.5 13.05C4.92 13.05 4.45 12.58 4.45 12C4.45 11.42 4.92 10.95 5.5 10.95Z"/><path d="M5.5 16.35C6.08 16.35 6.55 16.82 6.55 17.4C6.55 17.98 6.08 18.45 5.5 18.45C4.92 18.45 4.45 17.98 4.45 17.4C4.45 16.82 4.92 16.35 5.5 16.35Z"/><g fill="none" stroke="#000" stroke-width="1.9" stroke-linecap="round" stroke-linejoin="round"><path d="M9.4 6.6L20.2 6.6"/><path d="M9.4 12L20.2 12"/><path d="M9.4 17.4L20.2 17.4"/></g></svg>