<svg xmlns="http://www.w3.org/2000/svg" width="24" height="24" viewBox="0 0 24 24" fill="none">
<path d="M 3.95 6.6 C 3.95 6.02 4.42 5.55 5 5.55 C 5.58 5.55 6.05 6.02 6.05 6.6 C 6.05 7.18 5.58 7.65 5 7.65 C 4.42 7.65 3.95 7.18 3.95 6.6 Z" fill="none" stroke="#000" stroke-width="1.7" stroke-linecap="round" stroke-linejoin="round"/>
<path d="M 8.4 6.6 L 20.2 6.6" fill="none" stroke="#000" stroke-width="1.7" stroke-linecap="round" stroke-linejoin="round"/>
<path d="M 3.95 12 C 3.95 11.42 4.42 10.95 5 10.95 C 5.58 10.95 6.05 11.42 6.05 12 C 6.05 12.58 5.58 13.05 5 13.05 C 4.42 13.05 3.95 12.58 3.95 12 Z" fill="none" stroke="#000" stroke-width="1.7" stroke-linecap="round" stroke-linejoin="round"/>
<path d="M 8.4 12 L 20.2 12" fill="none" stroke="#000" stroke-width="1.7" stroke-linecap="round" stroke-linejoin="round"/>
<path d="M 3.95 17.4 C 3.95 16.82 4.42 16.35 5 16.35 C 5.58 16.35 6.05 16.82 6.05 17.4 C 6.05 17.98 5.58 18.45 5 18.45 C 4.42 18.45 3.95 17.98 3.95 17.4 Z" fill="none" stroke="#000" stroke-width="1.7" stroke-linecap="round" stroke-linejoin="round"/>
<path d="M 8.4 17.4 L 20.2 17.4" fill="none" stroke="#000" stroke-width="1.7" stroke-linecap="round" stroke-linejoin="round"/>
</svg>
