<svg xmlns="http://www.w3.org/2000/svg" width="24" height="24" viewBox="0 0 24 24" fill="none">
<path d="M 4.1 17.4 C 4.1 16.02 5.22 14.9 6.6 14.9 C 7.98 14.9 9.1 16.02 9.1 17.4 C 9.1 18.78 7.98 19.9 6.6 19.9 C 5.22 19.9 4.1 18.78 4.1 17.4 Z" fill="none" stroke="#000" stroke-width="1.7" stroke-linecap="round" stroke-linejoin="round"/>
<path d="M 9.1 17.4 L 9.1 5.6" fill="none" stroke="#000" stroke-width="1.7" stroke-linecap="round" stroke-linejoin="round"/>
<path d="M 9.1 5.6 L 18.2 4 L 18.2 15.2" fill="none" stroke="#000" stroke-width="1.7" stroke-linecap="round" stroke-linejoin="round"/>
<path d="M 13.2 15.2 C 13.2 13.82 14.32 12.7 15.7 12.7 C 17.08 12.7 18.2 13.82 18.2 15.2 C 18.2 16.58 17.08 17.7 15.7 17.7 C 14.32 17.7 13.2 16.58 13.2 15.2 Z" fill="none" stroke="#000" stroke-width="1.7" stroke-linecap="round" stroke-linejoin="round"/>
<path d="M 9.1 8.4 L 18.2 6.8" fill="none" stroke="#000" stroke-width="1.35" stroke-linecap="round" stroke-linejoin="round"/>
</svg>
