<svg xmlns="http://www.w3.org/2000/svg" viewBox="0 0 24 24"><g fill="none" stroke="#000" stroke-width="1.9" stroke-linecap="round" stroke-linejoin="round"><path d="M5.9 4.6L18.1 4.6C19.54 4.6 20.7 5.76 20.7 7.2L20.7 16.8C20.7 18.24 19.54 19.4 18.1 19.4L5.9 19.4C4.46 19.4 3.3 18.24 3.3 16.8L3.3 7.2C3.3 5.76 4.46 4.6 5.9 4.6Z"/><path d="M8.4 7.8C9.4 7.8 10.2 8.6 10.2 9.6C10.2 10.6 9.4 11.4 8.4 11.4C7.4 11.4 6.6 10.6 6.6 9.6C6.6 8.6 7.4 7.8 8.4 7.8Z"/><path d="M4.5 17.7L10.3 12.1L13.3 15L15.5 13L19.6 17.2"/></g></svg>